<svg width="144" height="26" viewBox="0 0 144 26" fill="none" xmlns="http://www.w3.org/2000/svg">
<path d="M17.4199 9.76289C17.4199 9.76289 21.7361 14.0791 22.4041 14.7471C23.4318 15.7748 23.329 17.1108 22.4041 18.0357C21.4792 18.9606 20.1432 19.0634 19.1156 18.0357C18.499 17.4191 14.1313 13.0515 14.1313 13.0515L17.4199 9.76289Z" fill="#56C5CA"/>
<path d="M14.1821 13C14.1821 13 18.4984 8.68372 19.115 8.01573C20.1426 6.98805 21.4786 7.09082 22.4035 8.01573C23.3284 8.94064 23.4312 10.2766 22.4035 11.3043C21.7869 11.9209 17.4193 16.2371 17.4193 16.2371L14.1821 13Z" fill="#B5D145"/>
<path d="M22.1461 13.0001C24.0987 9.86564 25.9999 11.5613 25.9999 13.0001C25.9999 14.4902 24.0987 16.1858 22.1461 13.0001Z" fill="#25A8A8"/>
<path d="M17.4193 16.2372L14.1821 13.0001L17.4193 9.76289L20.7079 13.0001L17.4193 16.2372Z" fill="#25A8A8"/>
<path d="M9.76318 17.4191C9.76318 17.4191 14.0794 21.7354 14.7474 22.4034C15.7751 23.431 17.1111 23.3283 18.036 22.4034C18.9609 21.4784 19.0636 20.1425 18.036 19.1148C17.4194 18.4982 13.0517 14.1306 13.0517 14.1306L9.76318 17.4191Z" fill="#44B2E5"/>
<path d="M12.9994 14.1819C12.9994 14.1819 8.68318 18.4981 8.0152 19.1147C6.98752 20.1424 7.09029 21.4783 8.0152 22.4033C8.9401 23.3282 10.2761 23.4309 11.3038 22.4033C11.9204 21.7866 16.2366 17.419 16.2366 17.419L12.9994 14.1819Z" fill="#44B2E5"/>
<path d="M13.0001 22.1463C9.86567 24.0989 11.5613 26.0001 13.0001 26.0001C14.4902 26.0001 16.1859 24.0989 13.0001 22.1463Z" fill="#4270B7"/>
<path d="M16.2375 17.419L13.0004 14.1819L9.76318 17.419L13.0004 20.7076L16.2375 17.419Z" fill="#56C5CA"/>
<path d="M8.58096 16.2885C8.58096 16.2885 4.26473 11.9723 3.59674 11.3043C2.56906 10.2766 2.67183 8.94064 3.59674 8.01573C4.52165 7.09082 5.85762 6.98805 6.8853 8.01573C7.5019 8.63233 11.8695 13 11.8695 13L8.58096 16.2885Z" fill="#B5D145"/>
<path d="M11.8181 13.0001C11.8181 13.0001 7.5019 17.3163 6.8853 17.9843C5.85762 19.012 4.52165 18.9092 3.59674 17.9843C2.67183 17.0594 2.56906 15.7234 3.59674 14.6957C4.21334 14.0791 8.58096 9.76289 8.58096 9.76289L11.8181 13.0001Z" fill="#56C5CA"/>
<path d="M3.85378 12.9999C1.9012 16.1857 0 14.4387 0 12.9999C0 11.5098 1.9012 9.81413 3.85378 12.9999Z" fill="#25A8A8"/>
<path d="M8.58142 9.76289L11.87 13.0001L8.58142 16.2886L5.34424 13.0001L8.58142 9.76289Z" fill="#25A8A8"/>
<path d="M16.288 8.58073C16.288 8.58073 11.9717 4.2645 11.3038 3.59651C10.2761 2.56883 8.9401 2.6716 8.0152 3.59651C7.09029 4.52142 6.98752 5.85739 8.0152 6.88507C8.6318 7.50168 12.9994 11.8693 12.9994 11.8693L16.288 8.58073Z" fill="#D6DF23"/>
<path d="M13.0004 11.8179C13.0004 11.8179 17.3166 7.50167 17.9846 6.88507C19.0123 5.85739 18.9095 4.52142 17.9846 3.59651C17.0597 2.6716 15.7237 2.56883 14.696 3.59651C14.0794 4.21311 9.76318 8.58073 9.76318 8.58073L13.0004 11.8179Z" fill="#D6DF23"/>
<path d="M12.9999 3.85378C16.1857 1.9012 14.4387 0 12.9999 0C11.5098 0 9.81414 1.9012 12.9999 3.85378Z" fill="#FEEB00"/>
<path d="M9.76318 8.58061L13.0004 11.8692L16.2889 8.58061L13.0004 5.34343L9.76318 8.58061Z" fill="#B5D145"/>
<path d="M41.1075 15.826C39.2063 15.158 38.0245 14.6955 38.0245 13.6679C38.0245 12.5888 39.2577 12.3319 40.234 12.3319C41.7241 12.3319 42.4948 12.7943 43.2142 13.4623C43.5225 13.7706 43.8308 13.8734 44.2419 13.8734C45.0126 13.8734 45.6293 13.2568 45.6293 12.486C45.6293 12.0236 45.4237 11.7153 45.321 11.6125C44.2419 10.2251 42.4435 9.45439 40.234 9.45439C36.9968 9.45439 34.9928 11.0987 34.9928 13.7192C34.9928 16.905 37.8189 17.8813 40.0798 18.6521C41.9296 19.2687 43.0601 19.7311 43.0601 20.7074C43.0601 22.1462 41.313 22.4031 40.2853 22.4031C38.7952 22.4031 37.6648 21.992 36.7399 21.0671C36.3802 20.7074 35.9691 20.6047 35.7122 20.6047C34.9414 20.6047 34.3248 21.2213 34.3248 21.992C34.3248 22.4031 34.479 22.66 34.6331 22.9169C35.558 24.0988 37.7162 25.332 40.2853 25.332C43.8308 25.332 46.0403 23.5849 46.0403 20.7588C46.1431 17.5216 43.3684 16.5967 41.1075 15.826Z" fill="black"/>
<path d="M55.0323 9.40352C53.645 9.40352 52.3604 9.86597 51.4355 10.6367V3.39162C51.4355 2.56948 50.7675 1.90149 49.9453 1.90149C49.1232 1.90149 48.4552 2.56948 48.4552 3.39162V23.6368C48.4552 24.459 49.1232 25.1269 49.9453 25.1269C50.7675 25.1269 51.4355 24.459 51.4355 23.6368V15.9806C51.4355 13.4115 52.6173 12.1782 55.0323 12.1782C57.3446 12.1782 58.2181 13.1545 58.2181 15.7751V23.5854C58.2181 24.4076 58.8861 25.0756 59.7082 25.0756C60.5304 25.0756 61.1984 24.4076 61.1984 23.5854V15.364C61.1984 11.4075 59.143 9.40352 55.0323 9.40352Z" fill="black"/>
<path d="M65.3599 9.55724C64.5377 9.55724 63.8698 10.2252 63.8698 11.0474V23.585C63.8698 24.4071 64.5377 25.0751 65.3599 25.0751C66.182 25.0751 66.85 24.4071 66.85 23.585V11.0987C66.85 10.2252 66.182 9.55724 65.3599 9.55724Z" fill="black"/>
<path d="M65.3597 4.26459C64.2807 4.26459 63.6641 4.88119 63.6641 6.01163C63.6641 7.03931 64.332 7.7073 65.3597 7.7073C66.3874 7.7073 67.0554 7.03931 67.0554 6.01163C67.0554 4.88119 66.4388 4.26459 65.3597 4.26459Z" fill="black"/>
<path d="M76.4081 9.40311C74.9693 9.40311 73.6847 9.86556 72.7598 10.6877C72.6057 10.0711 71.9891 9.60864 71.3211 9.60864C70.4989 9.60864 69.8309 10.2766 69.8309 11.0988V23.6364C69.8309 24.4585 70.4989 25.1265 71.3211 25.1265C72.1432 25.1265 72.8112 24.4585 72.8112 23.6364V15.9802C72.8112 13.411 73.993 12.1778 76.4081 12.1778C78.7203 12.1778 79.5938 13.1541 79.5938 15.7747V23.585C79.5938 24.4072 80.2618 25.0752 81.084 25.0752C81.9061 25.0752 82.5741 24.4072 82.5741 23.585V15.3636C82.6255 11.4071 80.5188 9.40311 76.4081 9.40311Z" fill="black"/>
<path d="M97.6292 15.9288C97.6292 12.8972 95.9335 9.40311 91.2062 9.40311C86.89 9.40311 84.3208 12.3834 84.3208 17.3162C84.3208 23.8933 88.226 25.2807 91.5145 25.2807C94.6489 25.2807 96.396 23.7392 96.7043 23.3795C96.8584 23.2253 97.2181 22.8657 97.2181 22.3004C97.2181 21.5297 96.6015 20.9131 95.8308 20.9131C95.4197 20.9131 95.2142 21.0158 94.9572 21.2214C94.1351 21.838 93.2102 22.4546 91.5659 22.4546C89.1509 22.4546 87.6094 20.9645 87.4552 18.4466H95.9335C97.6292 18.3953 97.6292 16.8024 97.6292 15.9288ZM94.6489 15.6719H87.4552C87.7635 13.4624 89.0995 12.2292 91.2576 12.2292C93.3643 12.2292 94.4948 13.3597 94.6489 15.6719Z" fill="black"/>
<path d="M106.262 9.40352C104.875 9.40352 103.59 9.86597 102.665 10.6367V3.39162C102.665 2.56948 101.997 1.90149 101.175 1.90149C100.353 1.90149 99.6851 2.56948 99.6851 3.39162V23.6368C99.6851 24.459 100.353 25.1269 101.175 25.1269C101.997 25.1269 102.665 24.459 102.665 23.6368V15.9806C102.665 13.4115 103.847 12.1782 106.262 12.1782C108.574 12.1782 109.448 13.1545 109.448 15.7751V23.5854C109.448 24.4076 110.116 25.0756 110.938 25.0756C111.76 25.0756 112.428 24.4076 112.428 23.5854V15.364C112.428 11.4075 110.321 9.40352 106.262 9.40352Z" fill="#46B0E3"/>
<path d="M125.839 9.55724C125.017 9.55724 124.297 10.2252 124.297 11.0474V19.1146C124.297 20.8103 123.886 22.3518 121.06 22.3518C118.183 22.3518 117.823 20.8103 117.823 19.1146V11.0987C117.823 10.2766 117.155 9.60862 116.333 9.60862C115.511 9.60862 114.843 10.2766 114.843 11.0987V19.166C114.843 23.2767 116.898 25.2807 121.111 25.2807C127.38 25.2807 127.38 20.6561 127.38 19.166V11.0987C127.278 10.2766 126.61 9.55724 125.839 9.55724Z" fill="#46B0E3"/>
<path d="M136.629 9.40352C135.087 9.40352 133.803 9.96874 132.929 10.6881V3.39162C132.929 2.56948 132.261 1.90149 131.439 1.90149C130.617 1.90149 129.949 2.56948 129.949 3.39162V18.704C129.949 22.7633 132.467 25.2811 136.526 25.2811C140.945 25.2811 143.36 22.455 143.36 17.3166C143.36 10.7909 139.712 9.40352 136.629 9.40352ZM136.526 22.455C134.214 22.455 132.981 21.119 132.981 18.704V14.5419C133.186 14.1308 134.265 12.2296 136.526 12.2296C139.095 12.2296 140.38 13.8739 140.38 17.3166C140.329 21.8898 138.17 22.455 136.526 22.455Z" fill="#46B0E3"/>
</svg>
